<svg xmlns="http://www.w3.org/2000/svg" xmlns:xlink="http://www.w3.org/1999/xlink" width="500" zoomAndPan="magnify" viewBox="0 0 375 374.999991" height="500" preserveAspectRatio="xMidYMid meet" version="1.0"><defs><clipPath id="283d2ab4bf"><path d="M 216.574219 216.574219 L 375 216.574219 L 375 375 L 216.574219 375 Z M 216.574219 216.574219 " clip-rule="nonzero"/></clipPath><clipPath id="4bde2165f2"><path d="M 295.789062 216.574219 C 252.039062 216.574219 216.574219 252.039062 216.574219 295.789062 C 216.574219 339.535156 252.039062 375 295.789062 375 C 339.535156 375 375 339.535156 375 295.789062 C 375 252.039062 339.535156 216.574219 295.789062 216.574219 Z M 295.789062 216.574219 " clip-rule="nonzero"/></clipPath><clipPath id="3a335450c7"><path d="M 0.574219 0.574219 L 159 0.574219 L 159 159 L 0.574219 159 Z M 0.574219 0.574219 " clip-rule="nonzero"/></clipPath><clipPath id="8eae03e972"><path d="M 79.789062 0.574219 C 36.039062 0.574219 0.574219 36.039062 0.574219 79.789062 C 0.574219 123.535156 36.039062 159 79.789062 159 C 123.535156 159 159 123.535156 159 79.789062 C 159 36.039062 123.535156 0.574219 79.789062 0.574219 Z M 79.789062 0.574219 " clip-rule="nonzero"/></clipPath><clipPath id="5fdbb82346"><rect x="0" width="159" y="0" height="159"/></clipPath></defs><path fill="#9b59b6" d="M 151.816406 43.066406 C 153.574219 34.394531 161.25 28.125 170.15625 28.125 L 205.195312 28.125 C 214.101562 28.125 221.777344 34.394531 223.535156 43.066406 L 232.03125 84.082031 C 240.292969 87.597656 248.027344 92.109375 255.058594 97.441406 L 294.785156 84.257812 C 303.222656 81.445312 312.480469 84.960938 316.933594 92.695312 L 334.453125 123.046875 C 338.90625 130.78125 337.324219 140.507812 330.644531 146.425781 L 299.414062 174.199219 C 299.941406 178.535156 300.175781 182.988281 300.175781 187.5 C 300.175781 192.011719 299.882812 196.464844 299.414062 200.800781 L 330.703125 228.632812 C 337.382812 234.550781 338.90625 244.335938 334.511719 252.011719 L 316.992188 282.363281 C 312.539062 290.039062 303.28125 293.613281 294.84375 290.800781 L 255.117188 277.617188 C 248.027344 282.949219 240.292969 287.402344 232.089844 290.976562 L 223.652344 331.933594 C 221.835938 340.664062 214.160156 346.875 205.3125 346.875 L 170.273438 346.875 C 161.367188 346.875 153.691406 340.605469 151.933594 331.933594 L 143.496094 290.976562 C 135.234375 287.460938 127.558594 282.949219 120.46875 277.617188 L 80.566406 290.800781 C 72.128906 293.613281 62.871094 290.097656 58.417969 282.363281 L 40.898438 252.011719 C 36.445312 244.277344 38.027344 234.550781 44.707031 228.632812 L 75.996094 200.800781 C 75.46875 196.464844 75.234375 192.011719 75.234375 187.5 C 75.234375 182.988281 75.527344 178.535156 75.996094 174.199219 L 44.707031 146.367188 C 38.027344 140.449219 36.503906 130.664062 40.898438 122.988281 L 58.417969 92.636719 C 62.871094 84.902344 72.128906 81.386719 80.566406 84.199219 L 120.292969 97.382812 C 127.382812 92.050781 135.117188 87.597656 143.320312 84.023438 Z M 187.675781 234.375 C 213.574219 234.257812 234.492188 213.222656 234.375 187.324219 C 234.257812 161.425781 213.222656 140.507812 187.324219 140.625 C 161.425781 140.742188 140.507812 161.777344 140.625 187.675781 C 140.742188 213.574219 161.777344 234.492188 187.675781 234.375 Z M 187.675781 234.375 " fill-opacity="1" fill-rule="nonzero"/><g clip-path="url(#283d2ab4bf)"><g clip-path="url(#4bde2165f2)"><g transform="matrix(1, 0, 0, 1, 216, 216)"><g clip-path="url(#5fdbb82346)"><g clip-path="url(#3a335450c7)"><g clip-path="url(#8eae03e972)"><path fill="#ff914d" d="M 0.574219 0.574219 L 159 0.574219 L 159 159 L 0.574219 159 Z M 0.574219 0.574219 " fill-opacity="1" fill-rule="nonzero"/></g></g></g></g></g></g></svg>